<svg xmlns="http://www.w3.org/2000/svg" xmlns:xlink="http://www.w3.org/1999/xlink" xmlns:lucid="lucid" width="1412" height="1147"><g transform="translate(-31 -169)" lucid:page-tab-id="0_0"><path d="M0 0h1760v1360H0z" fill="#fff"/><path d="M122.63 641.3h-19.75c-.9 0-1.63-.72-1.63-1.6v-2.43c0-9.04 5.94-16.6 14.75-18.74.4-.1.8-.04 1.16.16 2.6 1.38 5.4 1.38 8 0 .38-.2.75-.26 1.16-.17 2.3.57 4.22 1.4 6.2 2.72l-1.82 2.7c-1.47-.97-2.85-1.6-4.57-2.06-3.28 1.5-6.66 1.5-9.94 0-7.04 1.95-11.7 8.1-11.7 15.37v.8h18.13z" stroke="#fff" stroke-opacity="0" fill="#666"/><path d="M121.14 622.9c-5.88 0-10.64-4.75-10.64-10.6 0-5.88 4.76-10.63 10.64-10.63 5.87-.07 10.66 4.65 10.72 10.5.05 4.05-2 7.5-5.57 9.42-1.66.9-3.26 1.3-5.16 1.3zm0-18c-4.1 0-7.46 3.3-7.48 7.4 0 2.77 1.4 5.15 3.87 6.46 2.33 1.26 4.9 1.26 7.22 0 2.48-1.33 3.9-3.76 3.87-6.58-.05-4.06-3.4-7.3-7.48-7.26zM175.86 641.3H156.1v-3.23h18.14v-.8c0-7.3-4.67-13.43-11.7-15.4-3.28 1.54-6.66 1.54-9.95 0-1.73.5-3.14 1.15-4.62 2.17l-1.84-2.66c1.97-1.37 3.88-2.24 6.2-2.83.4-.1.8-.05 1.2.16 2.56 1.4 5.4 1.4 8 0 .38-.2.76-.24 1.17-.15 8.8 2.12 14.76 9.7 14.76 18.72v2.42c0 .88-.72 1.6-1.6 1.6z" stroke="#fff" stroke-opacity="0" fill="#666"/><path d="M157.53 622.9c-5.9 0-10.7-4.8-10.7-10.72 0-5.9 4.83-10.67 10.75-10.67s10.7 4.82 10.7 10.73c0 4.02-2.04 7.44-5.58 9.37-1.67.9-3.28 1.3-5.17 1.3zm0-18c-4.1 0-7.44 3.28-7.46 7.4-.02 2.77 1.4 5.15 3.86 6.45 2.32 1.27 4.9 1.27 7.23 0 2.5-1.32 3.95-3.76 3.9-6.6-.08-4.07-3.45-7.33-7.53-7.24zM165.26 677.72H113.4c-.9 0-1.6-.72-1.6-1.62v-3.44c-.06-12.46 8.2-22.94 20.3-25.88.45-.13.84-.07 1.22.12 3.86 2.08 8.1 2.08 12 0 .34-.2.72-.25 1.16-.12 12.17 2.9 20.43 13.4 20.37 25.88v3.44c0 .9-.7 1.62-1.6 1.62zm-50.22-3.23h48.56v-1.84c0-10.72-6.93-19.75-17.34-22.54-4.57 2.2-9.36 2.2-13.93 0-10.4 2.8-17.3 11.82-17.3 22.54z" stroke="#fff" stroke-opacity="0" fill="#666"/><path d="M139.38 651.65c-2.57 0-4.76-.55-7.04-1.77-7.07-3.88-9.67-12.7-5.8-19.8 3.87-7.04 12.72-9.63 19.82-5.8 7.06 3.9 9.66 12.72 5.8 19.8-1.4 2.56-3.23 4.4-5.8 5.8-2.25 1.22-4.44 1.77-6.98 1.77zm0-25.5c-4.24-.05-7.9 2.08-9.93 5.8-2.92 5.4-.94 12.16 4.47 15.1 3.5 1.87 7.36 1.87 10.86 0 3.77-2.04 5.93-5.68 5.87-9.93-.1-6.12-5.14-11.05-11.27-10.96z" stroke="#fff" stroke-opacity="0" fill="#666"/><path d="M176.3 641.3h-37.84c-.65 0-1.17-.5-1.17-1.17v-2.5c-.05-9.1 5.98-16.74 14.8-18.9.34-.08.62-.04.9.1 2.8 1.5 5.9 1.5 8.76 0 .24-.14.52-.18.84-.1 8.88 2.13 14.9 9.78 14.86 18.9v2.5c0 .66-.52 1.18-1.16 1.18zm-36.64-2.34h35.43v-1.34c0-7.82-5.07-14.4-12.66-16.44-3.34 1.6-6.83 1.6-10.16 0-7.6 2.04-12.62 8.62-12.62 16.44z" stroke="#fff" stroke-opacity="0" stroke-width=".73" fill="#fff" fill-opacity="0"/><path d="M140.25 641.3H102.4c-.63 0-1.15-.5-1.15-1.17v-2.5c-.04-9.1 6-16.74 14.82-18.9.32-.08.6-.04.9.1 2.8 1.5 5.9 1.5 8.74 0 .25-.14.54-.18.86-.1 8.87 2.13 14.9 9.78 14.86 18.9v2.5c0 .66-.52 1.18-1.17 1.18zm-36.63-2.34h35.43v-1.34c0-7.82-5.06-14.4-12.65-16.44-3.34 1.6-6.83 1.6-10.17 0-7.6 2.04-12.6 8.62-12.6 16.44z" stroke="#fff" stroke-opacity="0" stroke-width=".73" fill="#fff" fill-opacity="0"/><path d="M341.25 441.5H1240v240H341.25z" fill="#fff" fill-opacity="0"/><path d="M353.3 441.5h8m8.04 0h8.02m8.03 0h8m8.03 0h8.03m8.02 0h8.03m8.03 0h8.03m8.02 0h8.03m8.03 0h8.03m8.02 0h8.02m8.03 0h8.02m8.03 0h8.02m8.03 0h8.02m8.03 0h8.02m8.03 0h8.02m8.02 0H586m8.02 0h8.03m8.02 0h8.03m8.02 0h8.03m8.02 0h8.03m8.02 0h8.02m8.03 0h8.02m8.02 0h8.02m8.03 0h8.02m8.02 0h8.02m8.03 0h8.02m8 0h8.04m8.02 0h8.03m8 0h8.04m8.02 0h8.03m8 0h8.04m8.02 0h8.02m8.03 0h8.03m8.03 0h8.02m8.03 0h8.03m8.03 0h8.02m8.03 0h8.03m8.02 0h8.03m8.02 0h8.03m8.02 0h8.03m8.02 0h8.03m8.02 0h8.03m8.02 0h8.02m8.03 0h8.02m8.03 0h8.02m8.03 0h8.02m8.03 0h8.02m8.03 0h8.02m8.02 0h8.02m8.02 0h8.03m8.02 0h8.02m8.02 0h8.03m8.02 0h8.02m8.02 0h8.02m8.03 0h8m8.04 0h8.02m8.03 0h4v4m0 8v8m0 8v8m0 8v8m0 8v8m0 8v8m0 8v8m0 8v8m0 8v8m0 8v8m0 8v8m0 8v8m0 8v8m0 8v8m0 8v8m0 8v4h-4m-8.04 0h-8.02m-8.03 0h-8m-8.04 0h-8.02m-8.02 0h-8.03m-8.03 0h-8.03m-8.02 0h-8.03m-8.03 0h-8.03m-8.02 0h-8.03m-8.03 0h-8.02m-8.03 0h-8.02m-8.03 0h-8.02m-8.03 0h-8.02m-8.03 0h-8.02m-8.03 0h-8.02m-8.02 0h-8.03m-8.02 0h-8.03m-8.02 0h-8.03m-8.02 0h-8.03m-8.02 0h-8.03m-8.02 0H915m-8.02 0h-8.02m-8.03 0h-8.02m-8.02 0h-8.02m-8.03 0h-8.02m-8.02 0h-8.02m-8.02 0h-8.03m-8 0h-8.04m-8.02 0h-8.03m-8 0h-8.04m-8.02 0h-8.03m-8 0h-8.03m-8.03 0h-8.02m-8.03 0h-8.03m-8.03 0h-8.02m-8.03 0h-8.03m-8.03 0h-8.02m-8.02 0h-8.03m-8.02 0h-8.03m-8.02 0h-8.03m-8.02 0h-8.03m-8.02 0h-8.03m-8.02 0h-8.02m-8.03 0h-8.02m-8.03 0h-8.02m-8.03 0h-8.02m-8.03 0h-8.02m-8.03 0h-8.02m-8.02 0h-8.03m-8.02 0h-8.02m-8.02 0h-8.03m-8.02 0h-8.02m-8.02 0h-8.03m-8.02 0h-8m-8.04 0h-8.02m-8.03 0h-8m-8.04 0h-4v-4m0-8v-8m0-8v-8m0-8v-8m0-8v-8m0-8v-8m0-8v-8m0-8v-8m0-8v-8m0-8v-8m0-8v-8m0-8v-8m0-8v-8m0-8v-8m0-8v-8m0-8v-4h4" stroke="#147eba" stroke-width="2" fill="none"/><path d="M341.33 681.5v-240h27.32v240z" stroke="#000" stroke-opacity="0" stroke-width="2" fill="#fff" fill-opacity="0"/><use xlink:href="#a" transform="matrix(6.123233995736766e-17,-1,1,6.123233995736766e-17,346.33219470911627,676.5053189260199) translate(35.98765432098763 17.951822222222223)"/><use xlink:href="#b" transform="matrix(6.123233995736766e-17,-1,1,6.123233995736766e-17,346.33219470911627,676.5053189260199) translate(133.962962962963 17.951822222222223)"/><use xlink:href="#c" transform="matrix(6.123233995736766e-17,-1,1,6.123233995736766e-17,346.33219470911627,676.5053189260199) translate(181.22222222222223 17.951822222222223)"/><path d="M341.25 841.5H1240v240H341.25z" fill="#fff" fill-opacity="0"/><path d="M353.3 841.5h8m8.04 0h8.02m8.03 0h8m8.03 0h8.03m8.02 0h8.03m8.03 0h8.03m8.02 0h8.03m8.03 0h8.03m8.02 0h8.02m8.03 0h8.02m8.03 0h8.02m8.03 0h8.02m8.03 0h8.02m8.03 0h8.02m8.02 0H586m8.02 0h8.03m8.02 0h8.03m8.02 0h8.03m8.02 0h8.03m8.02 0h8.02m8.03 0h8.02m8.02 0h8.02m8.03 0h8.02m8.02 0h8.02m8.03 0h8.02m8 0h8.04m8.02 0h8.03m8 0h8.04m8.02 0h8.03m8 0h8.04m8.02 0h8.02m8.03 0h8.03m8.03 0h8.02m8.03 0h8.03m8.03 0h8.02m8.03 0h8.03m8.02 0h8.03m8.02 0h8.03m8.02 0h8.03m8.02 0h8.03m8.02 0h8.03m8.02 0h8.02m8.03 0h8.02m8.03 0h8.02m8.03 0h8.02m8.03 0h8.02m8.03 0h8.02m8.02 0h8.02m8.02 0h8.03m8.02 0h8.02m8.02 0h8.03m8.02 0h8.02m8.02 0h8.02m8.03 0h8m8.04 0h8.02m8.03 0h4v4m0 8v8m0 8v8m0 8v8m0 8v8m0 8v8m0 8v8m0 8v8m0 8v8m0 8v8m0 8v8m0 8v8m0 8v8m0 8v8m0 8v8m0 8v4h-4m-8.04 0h-8.02m-8.03 0h-8m-8.04 0h-8.02m-8.02 0h-8.03m-8.03 0h-8.03m-8.02 0h-8.03m-8.03 0h-8.03m-8.02 0h-8.03m-8.03 0h-8.02m-8.03 0h-8.02m-8.03 0h-8.02m-8.03 0h-8.02m-8.03 0h-8.02m-8.03 0h-8.02m-8.02 0h-8.03m-8.02 0h-8.03m-8.02 0h-8.03m-8.02 0h-8.03m-8.02 0h-8.03m-8.02 0H915m-8.02 0h-8.02m-8.03 0h-8.02m-8.02 0h-8.02m-8.03 0h-8.02m-8.02 0h-8.02m-8.02 0h-8.03m-8 0h-8.04m-8.02 0h-8.03m-8 0h-8.04m-8.02 0h-8.03m-8 0h-8.03m-8.03 0h-8.02m-8.03 0h-8.03m-8.03 0h-8.02m-8.03 0h-8.03m-8.03 0h-8.02m-8.02 0h-8.03m-8.02 0h-8.03m-8.02 0h-8.03m-8.02 0h-8.03m-8.02 0h-8.03m-8.02 0h-8.02m-8.03 0h-8.02m-8.03 0h-8.02m-8.03 0h-8.02m-8.03 0h-8.02m-8.03 0h-8.02m-8.02 0h-8.03m-8.02 0h-8.02m-8.02 0h-8.03m-8.02 0h-8.02m-8.02 0h-8.03m-8.02 0h-8m-8.04 0h-8.02m-8.03 0h-8m-8.04 0h-4v-4m0-8v-8m0-8v-8m0-8v-8m0-8v-8m0-8v-8m0-8v-8m0-8v-8m0-8v-8m0-8v-8m0-8v-8m0-8v-8m0-8v-8m0-8v-8m0-8v-8m0-8v-4h4" stroke="#147eba" stroke-width="2" fill="none"/><path d="M341.6 1081.5v-240h27.3v240z" stroke="#000" stroke-opacity="0" stroke-width="2" fill="#fff" fill-opacity="0"/><use xlink:href="#a" transform="matrix(6.123233995736766e-17,-1,1,6.123233995736766e-17,346.58903937476305,1076.5053189260198) translate(35.98765432098763 17.951822222222223)"/><use xlink:href="#b" transform="matrix(6.123233995736766e-17,-1,1,6.123233995736766e-17,346.58903937476305,1076.5053189260198) translate(133.962962962963 17.951822222222223)"/><use xlink:href="#d" transform="matrix(6.123233995736766e-17,-1,1,6.123233995736766e-17,346.58903937476305,1076.5053189260198) translate(181.22222222222223 17.951822222222223)"/><path d="M441.25 460h360v200h-360z" fill="#248814" fill-opacity=".13"/><path d="M441.25 460h56v56h-56v-56z" stroke="#fff" stroke-opacity="0" fill="#248814"/><path d="M484.63 482.18c-.15-.17-.34-.25-.56-.25h-5.15v-5.58c-.03-2.54-.96-4.7-2.84-6.4-1.9-1.84-4.15-2.75-6.77-2.75-2.64 0-4.9.83-6.8 2.62-1.9 1.7-2.86 3.87-2.9 6.4v5.66h-5.14c-.25 0-.44.1-.6.25-.15.17-.2.34-.2.6V508c0 .43.33.8.8.8h29.58c.47 0 .8-.37.8-.8v-25.28c0-.2-.05-.38-.2-.54zm-23.46-5.9c.03-2.13.8-3.88 2.37-5.3 1.62-1.5 3.53-2.2 5.74-2.2 2.22 0 4.12.75 5.7 2.25 1.54 1.4 2.32 3.2 2.32 5.32v5.58h-16.16zm22.1 30.94h-28.03v-23.7h28.02z" stroke="#fff" stroke-opacity="0" fill="#fff"/><path d="M468.45 497.3v6.25h1.6v-6.23c2.13-.4 3.62-2.2 3.63-4.35 0-2.43-1.97-4.4-4.4-4.43-2.2-.03-4.06 1.5-4.44 3.68-.4 2.4 1.2 4.68 3.6 5.1zm.82-7.15c.78 0 1.44.27 2 .82.54.56.82 1.22.8 2 .03 1.55-1.2 2.8-2.74 2.82h-.06c-1.56.1-2.92-1.06-3.04-2.62-.12-1.56 1.05-2.93 2.6-3.03.16-.02.28-.02.44 0z" stroke="#fff" stroke-opacity="0" fill="#fff"/><use xlink:href="#e" transform="matrix(1,0,0,1,512.25,480) translate(0 14.222222222222223)"/><use xlink:href="#f" transform="matrix(1,0,0,1,512.25,480) translate(53.23456790123458 14.222222222222223)"/><use xlink:href="#g" transform="matrix(1,0,0,1,512.25,480) translate(114.46913580246915 14.222222222222223)"/><path d="M841.25 460h360v200h-360z" fill="#147eba" fill-opacity=".13"/><path d="M841.25 460h56v56h-56v-56z" stroke="#fff" stroke-opacity="0" fill="#147eba"/><path d="M884.63 482.18c-.15-.17-.34-.25-.56-.25h-5.15v-5.58c-.03-2.54-.96-4.7-2.84-6.4-1.9-1.84-4.15-2.75-6.77-2.75-2.64 0-4.9.83-6.8 2.62-1.9 1.7-2.86 3.87-2.9 6.4v5.66h-5.14c-.25 0-.44.1-.6.25-.15.17-.2.34-.2.6V508c0 .43.33.8.8.8h29.58c.47 0 .8-.37.8-.8v-25.28c0-.2-.05-.38-.2-.54zm-23.46-5.9c.03-2.13.8-3.88 2.37-5.3 1.62-1.5 3.53-2.2 5.74-2.2 2.22 0 4.12.75 5.7 2.25 1.54 1.4 2.32 3.2 2.32 5.32v5.58h-16.16zm22.1 30.94h-28.03v-23.7h28.02z" stroke="#fff" stroke-opacity="0" fill="#fff"/><path d="M868.45 497.3v6.25h1.6v-6.23c2.13-.4 3.62-2.2 3.63-4.35 0-2.43-1.97-4.4-4.4-4.43-2.2-.03-4.06 1.5-4.44 3.68-.4 2.4 1.2 4.68 3.6 5.1zm.82-7.15c.78 0 1.44.27 2 .82.54.56.82 1.22.8 2 .03 1.55-1.2 2.8-2.74 2.82h-.06c-1.56.1-2.92-1.06-3.04-2.62-.12-1.56 1.05-2.93 2.6-3.03.16-.02.28-.02.44 0z" stroke="#fff" stroke-opacity="0" fill="#fff"/><use xlink:href="#h" transform="matrix(1,0,0,1,912.25,480) translate(0 14.222222222222223)"/><use xlink:href="#f" transform="matrix(1,0,0,1,912.25,480) translate(60.14814814814815 14.222222222222223)"/><use xlink:href="#g" transform="matrix(1,0,0,1,912.25,480) translate(121.38271604938274 14.222222222222223)"/><path d="M441.25 860h360v200h-360z" fill="#248814" fill-opacity=".13"/><path d="M441.25 860h56v56h-56v-56z" stroke="#fff" stroke-opacity="0" fill="#248814"/><path d="M484.63 882.18c-.15-.17-.34-.25-.56-.25h-5.15v-5.58c-.03-2.54-.96-4.7-2.84-6.4-1.9-1.84-4.15-2.75-6.77-2.75-2.64 0-4.9.83-6.8 2.62-1.9 1.7-2.86 3.87-2.9 6.4v5.66h-5.14c-.25 0-.44.1-.6.25-.15.17-.2.34-.2.6V908c0 .43.33.8.8.8h29.58c.47 0 .8-.37.8-.8v-25.28c0-.2-.05-.38-.2-.54zm-23.46-5.9c.03-2.13.8-3.88 2.37-5.3 1.62-1.5 3.53-2.2 5.74-2.2 2.22 0 4.12.75 5.7 2.25 1.54 1.4 2.32 3.2 2.32 5.32v5.58h-16.16zm22.1 30.94h-28.03v-23.7h28.02z" stroke="#fff" stroke-opacity="0" fill="#fff"/><path d="M468.45 897.3v6.25h1.6v-6.23c2.13-.4 3.62-2.2 3.63-4.35 0-2.43-1.97-4.4-4.4-4.43-2.2-.03-4.06 1.5-4.44 3.68-.4 2.4 1.2 4.68 3.6 5.1zm.82-7.15c.78 0 1.44.27 2 .82.54.56.82 1.22.8 2 .03 1.55-1.2 2.8-2.74 2.82h-.06c-1.56.1-2.92-1.06-3.04-2.62-.12-1.56 1.05-2.93 2.6-3.03.16-.02.28-.02.44 0z" stroke="#fff" stroke-opacity="0" fill="#fff"/><use xlink:href="#e" transform="matrix(1,0,0,1,512.25,880.0000000000001) translate(0 14.222222222222223)"/><use xlink:href="#f" transform="matrix(1,0,0,1,512.25,880.0000000000001) translate(53.23456790123458 14.222222222222223)"/><use xlink:href="#i" transform="matrix(1,0,0,1,512.25,880.0000000000001) translate(114.46913580246915 14.222222222222223)"/><path d="M841.25 860h360v200h-360z" fill="#147eba" fill-opacity=".13"/><path d="M841.25 860h56v56h-56v-56z" stroke="#fff" stroke-opacity="0" fill="#147eba"/><path d="M884.63 882.18c-.15-.17-.34-.25-.56-.25h-5.15v-5.58c-.03-2.54-.96-4.7-2.84-6.4-1.9-1.84-4.15-2.75-6.77-2.75-2.64 0-4.9.83-6.8 2.62-1.9 1.7-2.86 3.87-2.9 6.4v5.66h-5.14c-.25 0-.44.1-.6.25-.15.17-.2.34-.2.6V908c0 .43.33.8.8.8h29.58c.47 0 .8-.37.8-.8v-25.28c0-.2-.05-.38-.2-.54zm-23.46-5.9c.03-2.13.8-3.88 2.37-5.3 1.62-1.5 3.53-2.2 5.74-2.2 2.22 0 4.12.75 5.7 2.25 1.54 1.4 2.32 3.2 2.32 5.32v5.58h-16.16zm22.1 30.94h-28.03v-23.7h28.02z" stroke="#fff" stroke-opacity="0" fill="#fff"/><path d="M868.45 897.3v6.25h1.6v-6.23c2.13-.4 3.62-2.2 3.63-4.35 0-2.43-1.97-4.4-4.4-4.43-2.2-.03-4.06 1.5-4.44 3.68-.4 2.4 1.2 4.68 3.6 5.1zm.82-7.15c.78 0 1.44.27 2 .82.54.56.82 1.22.8 2 .03 1.55-1.2 2.8-2.74 2.82h-.06c-1.56.1-2.92-1.06-3.04-2.62-.12-1.56 1.05-2.93 2.6-3.03.16-.02.28-.02.44 0z" stroke="#fff" stroke-opacity="0" fill="#fff"/><use xlink:href="#h" transform="matrix(1,0,0,1,912.25,880.0000000000001) translate(0 14.222222222222223)"/><use xlink:href="#f" transform="matrix(1,0,0,1,912.25,880.0000000000001) translate(60.14814814814815 14.222222222222223)"/><use xlink:href="#i" transform="matrix(1,0,0,1,912.25,880.0000000000001) translate(121.38271604938274 14.222222222222223)"/><path d="M139.36 678.22v55.04c0 6.62 5.37 12 12 12H331.2" stroke="#666" fill="none"/><path d="M139.86 678.23h-1v-.5h1z" fill="#666"/><path d="M345.97 745.26l-14.26 4.63v-9.28z" stroke="#666" fill="#666"/><path d="M381.25 360H1220v760H381.25z" stroke="#248814" stroke-width="2" fill-opacity="0"/><path d="M381.25 360h56v56h-56v-56z" stroke="#fff" stroke-opacity="0" fill="#248814"/><path d="M413 388.3h-1.17v-1.1c-.12-1.73-1.48-3.07-3.2-3.2-1.9-.13-3.54 1.3-3.67 3.2v1.07h-1.18c-.44 0-.8.36-.8.8v6.13c0 .44.36.8.8.8H413c.45 0 .8-.36.8-.8v-6.1c0-.44-.35-.8-.8-.8zm-6.4-1.06c.1-1.02 1-1.77 2-1.67.9.08 1.6.77 1.68 1.67v1.06h-3.72zm5.66 7.08h-7.68v-4.42h7.63z" stroke="#fff" stroke-opacity="0" fill="#fff"/><path d="M423.52 385.74c-.08-2.44-1.58-4.47-3.87-5.3-1.58-.46-3.16-.13-4.4.9-.68-1.44-1.47-2.6-2.6-3.75-3.24-3.36-7.94-4.3-12.18-2.4-4.04 1.9-6.4 5.63-6.54 10.05v.7c-3.4.98-5.66 4.08-5.5 7.65v.63c.4 4.28 3.92 7.52 8.2 7.47h26s7.42-.63 7.42-8.1c.04-3.9-2.66-7.2-6.53-7.86zm-.96 14.4h-25.92c-3.46.05-6.3-2.53-6.58-5.97v-.52c-.16-3.05 1.92-5.7 4.9-6.3.4-.12.64-.48.6-.9-.05-.4-.05-.73 0-1.14.08-3.78 2.12-6.94 5.53-8.6 1.24-.56 2.4-.8 3.82-.84 2.62.08 4.87 1.04 6.7 2.94 1.25 1.3 2.04 2.6 2.62 4.3.04.15.12.28.25.37.36.27.86.2 1.1-.17.84-1.18 2.26-1.67 3.63-1.3 1.8.72 2.87 2.4 2.83 4.32-.08.4.2.82.63.9 3.56.36 6.2 3.55 5.8 7.12-.28 3.13-2.7 5.52-5.8 5.85z" stroke="#fff" stroke-opacity="0" fill="#fff"/><use xlink:href="#j" transform="matrix(1,0,0,1,452.25,380.00000000000006) translate(0 14.222222222222223)"/><use xlink:href="#k" transform="matrix(1,0,0,1,452.25,380.00000000000006) translate(0 33.777777777777786)"/><path d="M241.25 240H1260v1000H241.25z" stroke="#232f3e" stroke-width="2" fill-opacity="0"/><path d="M241.25 240h56v56h-56v-56z" stroke="#fff" stroke-opacity="0" fill="#232f3e"/><path d="M259.47 265.87c-.04.48.05.87.17 1.34.12.4.3.7.5 1.07.03.1.07.22.07.34 0 .2-.1.36-.27.46l-.95.62c-.12.08-.25.13-.37.13-.15 0-.32-.06-.44-.2-.2-.2-.37-.43-.53-.7-.17-.25-.3-.53-.46-.86-1.1 1.37-2.62 2.1-4.4 2.06-1.14.06-2.12-.3-2.95-1.08-.78-.8-1.15-1.76-1.1-2.85-.05-1.23.4-2.28 1.35-3.08 1.07-.85 2.3-1.23 3.66-1.16.57 0 1.02.02 1.6.1.57.1 1.1.2 1.72.33v-1.1c.08-.88-.16-1.67-.7-2.37-.74-.56-1.56-.8-2.46-.7-.54 0-1.04.07-1.6.2-.6.13-1.04.3-1.6.5l-.5.2h-.25c-.2 0-.33-.16-.33-.45v-.75c0-.18.04-.34.12-.5.13-.16.25-.26.4-.33.67-.3 1.2-.5 1.9-.67.78-.2 1.48-.3 2.3-.28 1.48-.13 2.8.26 3.9 1.2.95 1.05 1.36 2.28 1.23 3.67zm-6.07 2.28c.57 0 1.06-.1 1.6-.28.57-.2 1.02-.5 1.44-.96.24-.27.4-.56.5-.93.1-.45.15-.84.15-1.3V264c-.54-.1-.95-.17-1.44-.2h-1.4c-.82-.08-1.56.12-2.22.58-.53.45-.78 1.04-.74 1.73-.04.6.13 1.16.54 1.6.45.38.98.52 1.56.45zm12 1.6c-.22 0-.42-.03-.6-.15-.15-.17-.23-.36-.32-.6l-3.5-11.5-.1-.62c0-.24.1-.37.36-.37h1.48c.2 0 .37.04.57.15.16.18.24.37.28.6l2.5 9.96 2.4-9.93c0-.24.07-.44.27-.6.17-.12.37-.16.58-.15h1.2c.24 0 .4.03.6.15.17.18.25.36.3.6l2.33 9.94 2.55-10c.05-.2.17-.4.34-.58.16-.1.37-.17.57-.14h1.4c.17 0 .34.1.38.3v.31s0 .2-.12.35l-3.62 11.53c-.04.22-.12.42-.3.6-.2.1-.35.14-.56.13h-1.27c-.24.04-.44-.02-.6-.15-.17-.16-.26-.36-.3-.6l-2.3-9.6-2.3 9.6c-.04.24-.12.44-.28.6-.2.13-.4.2-.62.16zm19.2.38c-.82 0-1.5-.07-2.3-.25-.65-.13-1.14-.3-1.72-.6-.2-.1-.37-.23-.45-.42-.08-.14-.12-.28-.12-.43v-.75c0-.3.13-.46.33-.46h.3l.36.16c.57.23 1.02.4 1.6.5.6.14 1.14.2 1.8.2.78.05 1.48-.1 2.18-.5.5-.3.78-.8.73-1.4.06-.4-.1-.76-.35-1.04-.46-.4-.95-.65-1.52-.8l-2.18-.68c-.94-.25-1.73-.73-2.38-1.5-.5-.65-.74-1.35-.74-2.18 0-.6.12-1.08.4-1.6.3-.5.63-.9 1.08-1.22.5-.38 1-.6 1.6-.78.67-.18 1.2-.26 1.9-.25.33-.03.6-.03.98 0l1 .16.8.22.67.26c.16.1.28.22.45.38.08.15.12.3.12.5v.7c0 .32-.12.47-.37.47-.2-.03-.37-.08-.57-.18-.95-.42-1.8-.6-2.88-.58-.7-.04-1.3.1-1.97.4-.5.3-.74.8-.7 1.36 0 .4.13.76.46 1.05.48.4.97.65 1.6.82l2.08.67c.95.24 1.68.7 2.3 1.44.5.64.7 1.3.7 2.1 0 .63-.12 1.17-.37 1.73-.28.55-.6.95-1.1 1.32-.5.4-1 .66-1.6.84-.74.23-1.4.33-2.14.34zM287.36 277.48c-5.6 3.82-11.37 5.58-18.16 5.56-8.54.05-15.82-2.74-22.16-8.45-.5-.42 0-1 .5-.68 7.06 4.05 14.02 5.9 22.2 5.9 6.1-.04 11.28-1.1 16.92-3.47.82-.35 1.5.55.7 1.13z" stroke="#fff" stroke-opacity="0" fill="#fff"/><path d="M289.4 275.2c-.63-.82-4.15-.38-5.74-.2-.47 0-.54-.36-.1-.66 2.8-1.98 7.4-1.4 8-.74.58.67-.15 5.28-2.8 7.5-.4.32-.77.13-.6-.3.55-1.52 1.87-4.83 1.25-5.6z" stroke="#fff" stroke-opacity="0" fill="#fff"/><use xlink:href="#l" transform="matrix(1,0,0,1,312.25,259.99999999999994) translate(0 14.222222222222223)"/><use xlink:href="#m" transform="matrix(1,0,0,1,312.25,259.99999999999994) translate(45.333333333333336 14.222222222222223)"/><path d="M381 778.67c-18.44 0-33.4-14.97-33.4-33.4 0-18.46 14.96-33.43 33.4-33.43 18.45 0 33.42 14.97 33.42 33.42 0 18.44-14.97 33.4-33.4 33.4zm0-63.96c-16.9 0-30.53 13.65-30.53 30.56 0 16.9 13.63 30.54 30.54 30.54 16.92 0 30.55-13.64 30.55-30.54S397.92 714.7 381 714.7z" stroke="#fff" stroke-opacity="0" fill="#693cc5"/><path d="M397 765.33h-5.33c-.8 0-1.43-.63-1.43-1.42v-27.56c-2.9-1.5-5.64-2.17-8.88-2.25-3.56.07-6.52.85-9.65 2.55v27.26c0 .8-.62 1.43-1.4 1.43h-5.28c-.8 0-1.43-.63-1.43-1.42v-31c0-.43.16-.8.48-1.06 5.08-4.18 10.73-6.12 17.28-5.96 6.2-.12 11.53 1.62 16.5 5.3.4.26.57.66.57 1.1v31.63c0 .8-.63 1.43-1.43 1.43zm-3.9-2.84h2.47v-29.52c-4.36-3-8.92-4.34-14.2-4.26-5.62-.16-10.47 1.42-14.92 4.8v28.97h2.43v-26.76c0-.55.28-1.02.77-1.26 3.76-2.13 7.4-3.16 11.7-3.23 3.94.1 7.3.98 10.77 2.84h.14c.52.22.84.7.84 1.3z" stroke="#fff" stroke-opacity="0" fill="#693cc5"/><use xlink:href="#n" transform="matrix(1,0,0,1,317.59228894229534,787.6714484450406) translate(33.40123456790123 14.222222222222223)"/><use xlink:href="#o" transform="matrix(1,0,0,1,317.59228894229534,787.6714484450406) translate(28.462962962962962 35.55555555555556)"/><path d="M513.42 606.83c-18.45 0-33.42-14.97-33.42-33.4 0-18.46 14.97-33.43 33.42-33.43 18.44 0 33.4 14.97 33.4 33.42 0 18.44-14.96 33.4-33.4 33.4zm0-63.96c-16.9 0-30.55 13.64-30.55 30.55 0 16.9 13.64 30.54 30.55 30.54 16.9 0 30.54-13.64 30.54-30.54s-13.64-30.55-30.54-30.55z" stroke="#fff" stroke-opacity="0" fill="#693cc5"/><path d="M517.4 592.17h-11.7v-2.86H516v-29.1h-10.3v-2.87h11.7c.8 0 1.43.63 1.43 1.43v31.98c0 .8-.63 1.43-1.42 1.43z" stroke="#fff" stroke-opacity="0" fill="#693cc5"/><path d="M505.4 573.33h25.33v2.84H505.4v-2.84zM496.08 565.5c-.22 0-.4-.03-.6-.14-.52-.23-.82-.72-.82-1.27v-10.67c0-.57.3-1.04.8-1.3.5-.23 1.07-.17 1.52.18l6.65 5.34c.35.3.54.67.54 1.1 0 .46-.2.85-.54 1.12l-6.65 5.34c-.27.2-.56.3-.9.3zm1.42-9.13v4.76l2.97-2.38zM496.08 581.5c-.22 0-.4-.03-.6-.14-.52-.23-.82-.72-.82-1.27v-10.67c0-.57.3-1.05.8-1.3.5-.23 1.07-.18 1.52.17l6.65 5.34c.35.3.54.66.54 1.1 0 .46-.2.85-.54 1.12l-6.65 5.34c-.27.2-.56.3-.9.3zm1.42-9.13v4.76l2.97-2.38z" stroke="#fff" stroke-opacity="0" fill="#693cc5"/><path d="M532.07 582.83c-.2 0-.36-.03-.54-.1-.55-.23-.88-.73-.88-1.33v-13.32c0-.78.63-1.43 1.42-1.43.4 0 .73.15 1 .42l6.68 6.67c.55.56.55 1.45 0 2l-6.67 6.68c-.28.28-.6.4-1 .4zm1.42-11.37v6.47l3.24-3.24zM496.1 596.17c-.24 0-.43-.04-.63-.15-.5-.23-.8-.72-.8-1.27V584.1c0-.8.62-1.45 1.4-1.45.35 0 .64.1.9.33l6.66 5.32c.6.5.72 1.4.22 2-.07.08-.13.15-.22.22l-6.65 5.34c-.27.2-.56.3-.9.3zm1.4-9.14v4.76l2.98-2.4z" stroke="#fff" stroke-opacity="0" fill="#693cc5"/><g><use xlink:href="#p" transform="matrix(1,0,0,1,449.99999999999994,615.8303652032906) translate(9.104938271604937 14.222222222222223)"/><use xlink:href="#q" transform="matrix(1,0,0,1,449.99999999999994,615.8303652032906) translate(47.82098765432099 14.222222222222223)"/></g><path d="M513.42 1008.34c-18.45 0-33.42-14.97-33.42-33.42 0-18.44 14.97-33.4 33.42-33.4 18.44 0 33.4 14.96 33.4 33.4 0 18.45-14.96 33.42-33.4 33.42zm0-63.96c-16.9 0-30.55 13.63-30.55 30.54 0 16.9 13.64 30.54 30.55 30.54 16.9 0 30.54-13.63 30.54-30.54 0-16.9-13.64-30.54-30.54-30.54z" stroke="#fff" stroke-opacity="0" fill="#693cc5"/><path d="M517.4 993.68h-11.7v-2.86H516V961.7h-10.3v-2.86h11.7c.8 0 1.43.63 1.43 1.43v31.98c0 .8-.63 1.43-1.42 1.43z" stroke="#fff" stroke-opacity="0" fill="#693cc5"/><path d="M505.4 974.84h25.33v2.84H505.4v-2.84zM496.08 967c-.22 0-.4-.03-.6-.13-.52-.23-.82-.72-.82-1.27v-10.67c0-.56.3-1.04.8-1.28s1.07-.2 1.52.16l6.65 5.35c.35.28.54.66.54 1.1 0 .45-.2.85-.54 1.12l-6.65 5.33c-.27.22-.56.3-.9.3zm1.42-9.12v4.76l2.97-2.38zM496.08 983c-.22 0-.4-.03-.6-.14-.52-.23-.82-.7-.82-1.27v-10.67c0-.57.3-1.04.8-1.28.5-.25 1.07-.2 1.52.16l6.65 5.35c.35.28.54.66.54 1.1 0 .45-.2.84-.54 1.1l-6.65 5.35c-.27.22-.56.3-.9.3zm1.42-9.12v4.75l2.97-2.38z" stroke="#fff" stroke-opacity="0" fill="#693cc5"/><path d="M532.07 984.33c-.2 0-.36-.03-.54-.1-.55-.22-.88-.72-.88-1.32V969.6c0-.77.63-1.42 1.42-1.42.4 0 .73.14 1 .42l6.68 6.66c.55.57.55 1.46 0 2l-6.67 6.7c-.28.26-.6.4-1 .4zm1.42-11.37v6.47l3.24-3.23zM496.1 997.67c-.24 0-.43-.04-.63-.15-.5-.23-.8-.7-.8-1.27V985.6c0-.8.62-1.44 1.4-1.44.35 0 .64.1.9.32l6.66 5.33c.6.5.72 1.4.22 2-.07.1-.13.16-.22.22l-6.65 5.34c-.27.22-.56.3-.9.3zm1.4-9.13v4.75l2.98-2.4z" stroke="#fff" stroke-opacity="0" fill="#693cc5"/><g><use xlink:href="#p" transform="matrix(1,0,0,1,449.99999999999994,1017.3356841293104) translate(9.104938271604937 14.222222222222223)"/><use xlink:href="#q" transform="matrix(1,0,0,1,449.99999999999994,1017.3356841293104) translate(47.82098765432099 14.222222222222223)"/></g><defs><path fill="#666" d="M199 0l-22-63H83L61 0H9l90-248h61L250 0h-51zm-33-102l-36-108c-10 38-24 72-36 108h72" id="r"/><path fill="#666" d="M128 0H69L1-190h53L99-40l48-150h52" id="s"/><path fill="#666" d="M133-34C117-15 103 5 69 4 32 3 11-16 11-54c-1-60 55-63 116-61 1-26-3-47-28-47-18 1-26 9-28 27l-52-2c7-38 36-58 82-57s74 22 75 68l1 82c-1 14 12 18 25 15v27c-30 8-71 5-69-32zm-48 3c29 0 43-24 42-57-32 0-66-3-65 30 0 17 8 27 23 27" id="t"/><path fill="#666" d="M25-224v-37h50v37H25zM25 0v-190h50V0H25" id="u"/><path fill="#666" d="M25 0v-261h50V0H25" id="v"/><path fill="#666" d="M135-194c52 0 70 43 70 98 0 56-19 99-73 100-30 1-46-15-58-35L72 0H24l1-261h50v104c11-23 29-37 60-37zM114-30c31 0 40-27 40-66 0-37-7-63-39-63s-41 28-41 65c0 36 8 64 40 64" id="w"/><path fill="#666" d="M115-3C79 11 28 4 28-45v-112H4v-33h27l15-45h31v45h36v33H77v99c-1 23 16 31 38 25v30" id="x"/><path fill="#666" d="M123 10C108 53 80 86 19 72V37c35 8 53-11 59-39L3-190h52l48 148c12-52 28-100 44-148h51" id="y"/><g id="a"><use transform="matrix(0.04938271604938272,0,0,0.04938271604938272,0,0)" xlink:href="#r"/><use transform="matrix(0.04938271604938272,0,0,0.04938271604938272,12.14814814814815,0)" xlink:href="#s"/><use transform="matrix(0.04938271604938272,0,0,0.04938271604938272,22.024691358024697,0)" xlink:href="#t"/><use transform="matrix(0.04938271604938272,0,0,0.04938271604938272,31.90123456790124,0)" xlink:href="#u"/><use transform="matrix(0.04938271604938272,0,0,0.04938271604938272,36.83950617283951,0)" xlink:href="#v"/><use transform="matrix(0.04938271604938272,0,0,0.04938271604938272,41.777777777777786,0)" xlink:href="#t"/><use transform="matrix(0.04938271604938272,0,0,0.04938271604938272,51.65432098765432,0)" xlink:href="#w"/><use transform="matrix(0.04938271604938272,0,0,0.04938271604938272,62.469135802469154,0)" xlink:href="#u"/><use transform="matrix(0.04938271604938272,0,0,0.04938271604938272,67.40740740740742,0)" xlink:href="#v"/><use transform="matrix(0.04938271604938272,0,0,0.04938271604938272,72.3456790123457,0)" xlink:href="#u"/><use transform="matrix(0.04938271604938272,0,0,0.04938271604938272,77.28395061728398,0)" xlink:href="#x"/><use transform="matrix(0.04938271604938272,0,0,0.04938271604938272,83.16049382716052,0)" xlink:href="#y"/></g><path fill="#666" d="M210 0H11v-37l134-170H24v-41h178v36L68-41h142V0" id="z"/><path fill="#666" d="M110-194c64 0 96 36 96 99 0 64-35 99-97 99-61 0-95-36-95-99 0-62 34-99 96-99zm-1 164c35 0 45-28 45-65 0-40-10-65-43-65-34 0-45 26-45 65 0 36 10 65 43 65" id="A"/><path fill="#666" d="M135-194c87-1 58 113 63 194h-50c-7-57 23-157-34-157-59 0-34 97-39 157H25l-1-190h47c2 12-1 28 3 38 12-26 28-41 61-42" id="B"/><path fill="#666" d="M185-48c-13 30-37 53-82 52C43 2 14-33 14-96s30-98 90-98c62 0 83 45 84 108H66c0 31 8 55 39 56 18 0 30-7 34-22zm-45-69c5-46-57-63-70-21-2 6-4 13-4 21h74" id="C"/><g id="b"><use transform="matrix(0.04938271604938272,0,0,0.04938271604938272,0,0)" xlink:href="#z"/><use transform="matrix(0.04938271604938272,0,0,0.04938271604938272,10.814814814814815,0)" xlink:href="#A"/><use transform="matrix(0.04938271604938272,0,0,0.04938271604938272,21.62962962962963,0)" xlink:href="#B"/><use transform="matrix(0.04938271604938272,0,0,0.04938271604938272,32.44444444444444,0)" xlink:href="#C"/></g><use transform="matrix(0.04938271604938272,0,0,0.04938271604938272,0,0)" xlink:href="#r" id="c"/><path fill="#666" d="M182-130c37 4 62 22 62 59C244 23 116-4 24 0v-248c84 5 203-23 205 63 0 31-19 50-47 55zM76-148c40-3 101 13 101-30 0-44-60-28-101-31v61zm0 110c48-3 116 14 116-37 0-48-69-32-116-35v72" id="D"/><use transform="matrix(0.04938271604938272,0,0,0.04938271604938272,0,0)" xlink:href="#D" id="d"/><path fill="#666" d="M30-248c87 1 191-15 191 75 0 78-77 80-158 76V0H30v-248zm33 125c57 0 124 11 124-50 0-59-68-47-124-48v98" id="E"/><path fill="#666" d="M84 4C-5 8 30-112 23-190h32v120c0 31 7 50 39 49 72-2 45-101 50-169h31l1 190h-30c-1-10 1-25-2-33-11 22-28 36-60 37" id="F"/><path fill="#666" d="M115-194c53 0 69 39 70 98 0 66-23 100-70 100C84 3 66-7 56-30L54 0H23l1-261h32v101c10-23 28-34 59-34zm-8 174c40 0 45-34 45-75 0-40-5-75-45-74-42 0-51 32-51 76 0 43 10 73 51 73" id="G"/><path fill="#666" d="M24 0v-261h32V0H24" id="H"/><path fill="#666" d="M24-231v-30h32v30H24zM24 0v-190h32V0H24" id="I"/><path fill="#666" d="M96-169c-40 0-48 33-48 73s9 75 48 75c24 0 41-14 43-38l32 2c-6 37-31 61-74 61-59 0-76-41-82-99-10-93 101-131 147-64 4 7 5 14 7 22l-32 3c-4-21-16-35-41-35" id="J"/><g id="e"><use transform="matrix(0.04938271604938272,0,0,0.04938271604938272,0,0)" xlink:href="#E"/><use transform="matrix(0.04938271604938272,0,0,0.04938271604938272,11.851851851851853,0)" xlink:href="#F"/><use transform="matrix(0.04938271604938272,0,0,0.04938271604938272,21.7283950617284,0)" xlink:href="#G"/><use transform="matrix(0.04938271604938272,0,0,0.04938271604938272,31.60493827160494,0)" xlink:href="#H"/><use transform="matrix(0.04938271604938272,0,0,0.04938271604938272,35.50617283950618,0)" xlink:href="#I"/><use transform="matrix(0.04938271604938272,0,0,0.04938271604938272,39.40740740740741,0)" xlink:href="#J"/></g><path fill="#666" d="M185-189c-5-48-123-54-124 2 14 75 158 14 163 119 3 78-121 87-175 55-17-10-28-26-33-46l33-7c5 56 141 63 141-1 0-78-155-14-162-118-5-82 145-84 179-34 5 7 8 16 11 25" id="K"/><path fill="#666" d="M117-194c89-4 53 116 60 194h-32v-121c0-31-8-49-39-48C34-167 62-67 57 0H25l-1-190h30c1 10-1 24 2 32 11-22 29-35 61-36" id="L"/><path fill="#666" d="M100-194c63 0 86 42 84 106H49c0 40 14 67 53 68 26 1 43-12 49-29l28 8c-11 28-37 45-77 45C44 4 14-33 15-96c1-61 26-98 85-98zm52 81c6-60-76-77-97-28-3 7-6 17-6 28h103" id="M"/><path fill="#666" d="M59-47c-2 24 18 29 38 22v24C64 9 27 4 27-40v-127H5v-23h24l9-43h21v43h35v23H59v120" id="N"/><g id="f"><use transform="matrix(0.04938271604938272,0,0,0.04938271604938272,0,0)" xlink:href="#K"/><use transform="matrix(0.04938271604938272,0,0,0.04938271604938272,11.851851851851853,0)" xlink:href="#F"/><use transform="matrix(0.04938271604938272,0,0,0.04938271604938272,21.7283950617284,0)" xlink:href="#G"/><use transform="matrix(0.04938271604938272,0,0,0.04938271604938272,31.60493827160494,0)" xlink:href="#L"/><use transform="matrix(0.04938271604938272,0,0,0.04938271604938272,41.48148148148149,0)" xlink:href="#M"/><use transform="matrix(0.04938271604938272,0,0,0.04938271604938272,51.35802469135803,0)" xlink:href="#N"/></g><path fill="#666" d="M27 0v-27h64v-190l-56 39v-29l58-41h29v221h61V0H27" id="O"/><use transform="matrix(0.04938271604938272,0,0,0.04938271604938272,0,0)" xlink:href="#O" id="g"/><path fill="#666" d="M114-163C36-179 61-72 57 0H25l-1-190h30c1 12-1 29 2 39 6-27 23-49 58-41v29" id="P"/><path fill="#666" d="M108 0H70L1-190h34L89-25l56-165h34" id="Q"/><path fill="#666" d="M141-36C126-15 110 5 73 4 37 3 15-17 15-53c-1-64 63-63 125-63 3-35-9-54-41-54-24 1-41 7-42 31l-33-3c5-37 33-52 76-52 45 0 72 20 72 64v82c-1 20 7 32 28 27v20c-31 9-61-2-59-35zM48-53c0 20 12 33 32 33 41-3 63-29 60-74-43 2-92-5-92 41" id="R"/><g id="h"><use transform="matrix(0.04938271604938272,0,0,0.04938271604938272,0,0)" xlink:href="#E"/><use transform="matrix(0.04938271604938272,0,0,0.04938271604938272,11.851851851851853,0)" xlink:href="#P"/><use transform="matrix(0.04938271604938272,0,0,0.04938271604938272,17.728395061728396,0)" xlink:href="#I"/><use transform="matrix(0.04938271604938272,0,0,0.04938271604938272,21.62962962962963,0)" xlink:href="#Q"/><use transform="matrix(0.04938271604938272,0,0,0.04938271604938272,30.518518518518523,0)" xlink:href="#R"/><use transform="matrix(0.04938271604938272,0,0,0.04938271604938272,40.39506172839506,0)" xlink:href="#N"/><use transform="matrix(0.04938271604938272,0,0,0.04938271604938272,45.333333333333336,0)" xlink:href="#M"/></g><path fill="#666" d="M101-251c82-7 93 87 43 132L82-64C71-53 59-42 53-27h129V0H18c2-99 128-94 128-182 0-28-16-43-45-43s-46 15-49 41l-32-3c6-41 34-60 81-64" id="S"/><use transform="matrix(0.04938271604938272,0,0,0.04938271604938272,0,0)" xlink:href="#S" id="i"/><path fill="#666" d="M147 0H94L2-248h55l64 206c17-72 42-137 63-206h54" id="T"/><path fill="#666" d="M24-248c93 1 206-16 204 79-1 75-69 88-152 82V0H24v-248zm52 121c47 0 100 7 100-41 0-47-54-39-100-39v80" id="U"/><path fill="#666" d="M67-125c0 53 21 87 73 88 37 1 54-22 65-47l45 17C233-25 199 4 140 4 58 4 20-42 15-125 8-235 124-281 211-232c18 10 29 29 36 50l-46 12c-8-25-30-41-62-41-52 0-71 34-72 86" id="V"/><g id="j"><use transform="matrix(0.04938271604938272,0,0,0.04938271604938272,0,0)" xlink:href="#T"/><use transform="matrix(0.04938271604938272,0,0,0.04938271604938272,11.851851851851853,0)" xlink:href="#U"/><use transform="matrix(0.04938271604938272,0,0,0.04938271604938272,23.703703703703706,0)" xlink:href="#V"/></g><path fill="#666" d="M101-251c68 0 85 55 85 127S166 4 100 4C33 4 14-52 14-124c0-73 17-127 87-127zm-1 229c47 0 54-49 54-102s-4-102-53-102c-51 0-55 48-55 102 0 53 5 102 54 102" id="W"/><path fill="#666" d="M33 0v-38h34V0H33" id="X"/><path fill="#666" d="M0 4l72-265h28L28 4H0" id="Y"/><path fill="#666" d="M155-56V0h-30v-56H8v-25l114-167h33v167h35v25h-35zm-30-156c-27 46-58 90-88 131h88v-131" id="Z"/><g id="k"><use transform="matrix(0.04320987654320988,0,0,0.04320987654320988,0,0)" xlink:href="#O"/><use transform="matrix(0.04320987654320988,0,0,0.04320987654320988,8.641975308641976,0)" xlink:href="#W"/><use transform="matrix(0.04320987654320988,0,0,0.04320987654320988,17.283950617283953,0)" xlink:href="#X"/><use transform="matrix(0.04320987654320988,0,0,0.04320987654320988,21.60493827160494,0)" xlink:href="#W"/><use transform="matrix(0.04320987654320988,0,0,0.04320987654320988,30.24691358024692,0)" xlink:href="#X"/><use transform="matrix(0.04320987654320988,0,0,0.04320987654320988,34.567901234567906,0)" xlink:href="#W"/><use transform="matrix(0.04320987654320988,0,0,0.04320987654320988,43.20987654320988,0)" xlink:href="#X"/><use transform="matrix(0.04320987654320988,0,0,0.04320987654320988,47.53086419753087,0)" xlink:href="#W"/><use transform="matrix(0.04320987654320988,0,0,0.04320987654320988,56.17283950617284,0)" xlink:href="#Y"/><use transform="matrix(0.04320987654320988,0,0,0.04320987654320988,60.49382716049384,0)" xlink:href="#S"/><use transform="matrix(0.04320987654320988,0,0,0.04320987654320988,69.13580246913581,0)" xlink:href="#Z"/></g><path fill="#666" d="M275 0h-61l-44-196L126 0H64L0-248h53L97-49l45-199h58l43 199 44-199h52" id="aa"/><path fill="#666" d="M169-182c-1-43-94-46-97-3 18 66 151 10 154 114 3 95-165 93-204 36-6-8-10-19-12-30l50-8c3 46 112 56 116 5-17-69-150-10-154-114-4-87 153-88 188-35 5 8 8 18 10 28" id="ab"/><g id="l"><use transform="matrix(0.04938271604938272,0,0,0.04938271604938272,0,0)" xlink:href="#r"/><use transform="matrix(0.04938271604938272,0,0,0.04938271604938272,11.80246913580247,0)" xlink:href="#aa"/><use transform="matrix(0.04938271604938272,0,0,0.04938271604938272,28.543209876543205,0)" xlink:href="#ab"/></g><path fill="#666" d="M85 4C-2 5 27-109 22-190h50c7 57-23 150 33 157 60-5 35-97 40-157h50l1 190h-47c-2-12 1-28-3-38-12 25-28 42-61 42" id="ac"/><path fill="#666" d="M88-194c31-1 46 15 58 34l-1-101h50l1 261h-48c-2-10 0-23-3-31C134-8 116 4 84 4 32 4 16-41 15-95c0-56 19-97 73-99zm17 164c33 0 40-30 41-66 1-37-9-64-41-64s-38 30-39 65c0 43 13 65 39 65" id="ad"/><g id="m"><use transform="matrix(0.04938271604938272,0,0,0.04938271604938272,0,0)" xlink:href="#V"/><use transform="matrix(0.04938271604938272,0,0,0.04938271604938272,12.790123456790125,0)" xlink:href="#v"/><use transform="matrix(0.04938271604938272,0,0,0.04938271604938272,17.7283950617284,0)" xlink:href="#A"/><use transform="matrix(0.04938271604938272,0,0,0.04938271604938272,28.54320987654322,0)" xlink:href="#ac"/><use transform="matrix(0.04938271604938272,0,0,0.04938271604938272,39.35802469135803,0)" xlink:href="#ad"/></g><path fill="#666" d="M33 0v-248h34V0H33" id="ae"/><g id="n"><use transform="matrix(0.04938271604938272,0,0,0.04938271604938272,0,0)" xlink:href="#ae"/><use transform="matrix(0.04938271604938272,0,0,0.04938271604938272,4.938271604938272,0)" xlink:href="#L"/><use transform="matrix(0.04938271604938272,0,0,0.04938271604938272,14.814814814814817,0)" xlink:href="#N"/><use transform="matrix(0.04938271604938272,0,0,0.04938271604938272,19.75308641975309,0)" xlink:href="#M"/><use transform="matrix(0.04938271604938272,0,0,0.04938271604938272,29.629629629629633,0)" xlink:href="#P"/><use transform="matrix(0.04938271604938272,0,0,0.04938271604938272,35.50617283950618,0)" xlink:href="#L"/><use transform="matrix(0.04938271604938272,0,0,0.04938271604938272,45.38271604938272,0)" xlink:href="#M"/><use transform="matrix(0.04938271604938272,0,0,0.04938271604938272,55.25925925925927,0)" xlink:href="#N"/></g><path fill="#666" d="M143 4C61 4 22-44 18-125c-5-107 100-154 193-111 17 8 29 25 37 43l-32 9c-13-25-37-40-76-40-61 0-88 39-88 99 0 61 29 100 91 101 35 0 62-11 79-27v-45h-74v-28h105v86C228-13 192 4 143 4" id="af"/><path fill="#666" d="M206 0h-36l-40-164L89 0H53L-1-190h32L70-26l43-164h34l41 164 42-164h31" id="ag"/><path fill="#666" d="M179-190L93 31C79 59 56 82 12 73V49c39 6 53-20 64-50L1-190h34L92-34l54-156h33" id="ah"/><g id="o"><use transform="matrix(0.04938271604938272,0,0,0.04938271604938272,0,0)" xlink:href="#af"/><use transform="matrix(0.04938271604938272,0,0,0.04938271604938272,13.827160493827162,0)" xlink:href="#R"/><use transform="matrix(0.04938271604938272,0,0,0.04938271604938272,23.703703703703706,0)" xlink:href="#N"/><use transform="matrix(0.04938271604938272,0,0,0.04938271604938272,28.641975308641978,0)" xlink:href="#M"/><use transform="matrix(0.04938271604938272,0,0,0.04938271604938272,38.51851851851852,0)" xlink:href="#ag"/><use transform="matrix(0.04938271604938272,0,0,0.04938271604938272,51.308641975308646,0)" xlink:href="#R"/><use transform="matrix(0.04938271604938272,0,0,0.04938271604938272,61.18518518518519,0)" xlink:href="#ah"/></g><path fill="#666" d="M190 0L58-211 59 0H30v-248h39L202-35l-2-213h31V0h-41" id="ai"/><path fill="#666" d="M205 0l-28-72H64L36 0H1l101-248h38L239 0h-34zm-38-99l-47-123c-12 45-31 82-46 123h93" id="aj"/><path fill="#666" d="M127-220V0H93v-220H8v-28h204v28h-85" id="ak"/><g id="p"><use transform="matrix(0.04938271604938272,0,0,0.04938271604938272,0,0)" xlink:href="#ai"/><use transform="matrix(0.04938271604938272,0,0,0.04938271604938272,12.790123456790125,0)" xlink:href="#aj"/><use transform="matrix(0.04938271604938272,0,0,0.04938271604938272,23.308641975308646,0)" xlink:href="#ak"/></g><g id="q"><use transform="matrix(0.04938271604938272,0,0,0.04938271604938272,0,0)" xlink:href="#af"/><use transform="matrix(0.04938271604938272,0,0,0.04938271604938272,13.827160493827162,0)" xlink:href="#R"/><use transform="matrix(0.04938271604938272,0,0,0.04938271604938272,23.703703703703706,0)" xlink:href="#N"/><use transform="matrix(0.04938271604938272,0,0,0.04938271604938272,28.641975308641978,0)" xlink:href="#M"/><use transform="matrix(0.04938271604938272,0,0,0.04938271604938272,38.51851851851852,0)" xlink:href="#ag"/><use transform="matrix(0.04938271604938272,0,0,0.04938271604938272,51.308641975308646,0)" xlink:href="#R"/><use transform="matrix(0.04938271604938272,0,0,0.04938271604938272,61.18518518518519,0)" xlink:href="#ah"/></g></defs></g></svg>